<svg width="50" height="50" viewBox="0 0 50 50" fill="none" xmlns="http://www.w3.org/2000/svg">
<rect width="50" height="50" rx="25" fill="#DC7344"/>
<path d="M17.6606 21V12.6H18.9206V19.884H23.7566V21H17.6606ZM28.3366 21.132C27.7286 21.132 27.1606 21.024 26.6326 20.808C26.1046 20.584 25.6366 20.276 25.2286 19.884C24.8286 19.484 24.5166 19.024 24.2926 18.504C24.0766 17.976 23.9686 17.408 23.9686 16.8C23.9686 16.192 24.0766 15.628 24.2926 15.108C24.5166 14.58 24.8286 14.12 25.2286 13.728C25.6366 13.328 26.1046 13.02 26.6326 12.804C27.1606 12.58 27.7286 12.468 28.3366 12.468C28.9446 12.468 29.5126 12.58 30.0406 12.804C30.5766 13.02 31.0446 13.328 31.4446 13.728C31.8446 14.12 32.1566 14.58 32.3806 15.108C32.6046 15.628 32.7166 16.192 32.7166 16.8C32.7166 17.408 32.6046 17.976 32.3806 18.504C32.1566 19.024 31.8446 19.484 31.4446 19.884C31.0446 20.276 30.5766 20.584 30.0406 20.808C29.5126 21.024 28.9446 21.132 28.3366 21.132ZM28.3486 19.968C28.7806 19.968 29.1806 19.888 29.5486 19.728C29.9246 19.568 30.2526 19.348 30.5326 19.068C30.8126 18.78 31.0326 18.444 31.1926 18.06C31.3526 17.668 31.4326 17.248 31.4326 16.8C31.4326 16.344 31.3526 15.924 31.1926 15.54C31.0326 15.156 30.8126 14.824 30.5326 14.544C30.2526 14.256 29.9246 14.032 29.5486 13.872C29.1806 13.712 28.7806 13.632 28.3486 13.632C27.9086 13.632 27.5006 13.712 27.1246 13.872C26.7486 14.032 26.4206 14.256 26.1406 14.544C25.8606 14.824 25.6406 15.156 25.4806 15.54C25.3286 15.924 25.2526 16.34 25.2526 16.788C25.2526 17.244 25.3286 17.668 25.4806 18.06C25.6406 18.444 25.8606 18.78 26.1406 19.068C26.4206 19.348 26.7486 19.568 27.1246 19.728C27.5006 19.888 27.9086 19.968 28.3486 19.968ZM20.2863 37.132C19.6703 37.132 19.0943 37.02 18.5583 36.796C18.0303 36.572 17.5663 36.264 17.1663 35.872C16.7663 35.472 16.4543 35.012 16.2303 34.492C16.0063 33.964 15.8943 33.4 15.8943 32.8C15.8943 32.2 16.0023 31.64 16.2183 31.12C16.4423 30.592 16.7543 30.132 17.1543 29.74C17.5543 29.34 18.0183 29.028 18.5463 28.804C19.0743 28.58 19.6463 28.468 20.2623 28.468C20.9263 28.468 21.5543 28.596 22.1463 28.852C22.7383 29.108 23.2383 29.464 23.6463 29.92L22.7823 30.76C22.4783 30.4 22.1023 30.124 21.6543 29.932C21.2143 29.732 20.7503 29.632 20.2623 29.632C19.8223 29.632 19.4143 29.712 19.0383 29.872C18.6703 30.032 18.3463 30.256 18.0663 30.544C17.7863 30.824 17.5663 31.156 17.4063 31.54C17.2543 31.924 17.1783 32.344 17.1783 32.8C17.1783 33.248 17.2543 33.668 17.4063 34.06C17.5663 34.444 17.7863 34.78 18.0663 35.068C18.3543 35.356 18.6863 35.58 19.0623 35.74C19.4383 35.9 19.8463 35.98 20.2863 35.98C20.7823 35.98 21.2303 35.876 21.6303 35.668C22.0383 35.46 22.3703 35.176 22.6263 34.816C22.8823 34.448 23.0383 34.036 23.0943 33.58H20.2983V32.476H24.4143V32.908C24.4143 33.508 24.3103 34.064 24.1023 34.576C23.8943 35.088 23.6023 35.536 23.2263 35.92C22.8583 36.304 22.4223 36.604 21.9183 36.82C21.4143 37.028 20.8703 37.132 20.2863 37.132ZM29.7428 37.132C29.1348 37.132 28.5668 37.024 28.0388 36.808C27.5108 36.584 27.0428 36.276 26.6348 35.884C26.2348 35.484 25.9228 35.024 25.6988 34.504C25.4828 33.976 25.3748 33.408 25.3748 32.8C25.3748 32.192 25.4828 31.628 25.6988 31.108C25.9228 30.58 26.2348 30.12 26.6348 29.728C27.0428 29.328 27.5108 29.02 28.0388 28.804C28.5668 28.58 29.1348 28.468 29.7428 28.468C30.3508 28.468 30.9188 28.58 31.4468 28.804C31.9828 29.02 32.4508 29.328 32.8508 29.728C33.2508 30.12 33.5628 30.58 33.7868 31.108C34.0108 31.628 34.1228 32.192 34.1228 32.8C34.1228 33.408 34.0108 33.976 33.7868 34.504C33.5628 35.024 33.2508 35.484 32.8508 35.884C32.4508 36.276 31.9828 36.584 31.4468 36.808C30.9188 37.024 30.3508 37.132 29.7428 37.132ZM29.7548 35.968C30.1868 35.968 30.5868 35.888 30.9548 35.728C31.3308 35.568 31.6588 35.348 31.9388 35.068C32.2188 34.78 32.4388 34.444 32.5988 34.06C32.7588 33.668 32.8388 33.248 32.8388 32.8C32.8388 32.344 32.7588 31.924 32.5988 31.54C32.4388 31.156 32.2188 30.824 31.9388 30.544C31.6588 30.256 31.3308 30.032 30.9548 29.872C30.5868 29.712 30.1868 29.632 29.7548 29.632C29.3148 29.632 28.9068 29.712 28.5308 29.872C28.1548 30.032 27.8268 30.256 27.5468 30.544C27.2668 30.824 27.0468 31.156 26.8868 31.54C26.7348 31.924 26.6588 32.34 26.6588 32.788C26.6588 33.244 26.7348 33.668 26.8868 34.06C27.0468 34.444 27.2668 34.78 27.5468 35.068C27.8268 35.348 28.1548 35.568 28.5308 35.728C28.9068 35.888 29.3148 35.968 29.7548 35.968Z" fill="#F4F4F2"/>
</svg>
