<svg width="30" height="30" viewBox="0 0 30 30" fill="none" xmlns="http://www.w3.org/2000/svg">
<path fill-rule="evenodd" clip-rule="evenodd" d="M5.39463 8.16635C3.97422 10.1626 3.21117 12.5519 3.21159 15.0019C3.20848 17.8931 4.26812 20.6846 6.18899 22.8455C8.10986 25.0064 10.7579 26.386 13.6296 26.7217C16.5013 27.0575 19.3962 26.3261 21.7638 24.6666C24.1313 23.0072 25.8064 20.5354 26.4704 17.7214C26.57 17.3085 26.829 16.9518 27.1909 16.7292C27.5527 16.5067 27.988 16.4365 28.4014 16.5339C28.8149 16.6313 29.173 16.8885 29.3975 17.2492C29.6219 17.6098 29.6945 18.0447 29.5992 18.4587C28.8202 21.7481 26.953 24.678 24.3004 26.7733C21.6478 28.8687 18.3652 30.0068 14.9848 30.003C11.6044 29.9993 8.32435 28.8539 5.67639 26.7526C3.02844 24.6513 1.16781 21.7172 0.396125 18.4261C-0.375558 15.1349 -0.0130524 11.6796 1.42487 8.62031C2.8628 5.56098 5.29186 3.07698 8.31826 1.57099C11.3447 0.0650016 14.791 -0.374691 18.0986 0.323192C21.4062 1.02108 24.3811 2.81562 26.5411 5.41592L28.1698 3.78504C28.3197 3.6348 28.5108 3.53243 28.7189 3.49093C28.927 3.44942 29.1427 3.47065 29.3388 3.55191C29.5348 3.63317 29.7023 3.77081 29.82 3.94737C29.9377 4.12394 30.0004 4.33148 30 4.54369V10.5314C30 10.8156 29.8871 11.0882 29.6862 11.2891C29.4852 11.4901 29.2127 11.603 28.9285 11.603H22.9429C22.7308 11.6029 22.5236 11.54 22.3474 11.4221C22.1711 11.3042 22.0338 11.1367 21.9528 10.9408C21.8718 10.7448 21.8508 10.5292 21.8923 10.3213C21.9339 10.1134 22.0362 9.92252 22.1864 9.77279L24.2566 7.70472C22.7402 5.78034 20.6619 4.37631 18.3105 3.68786C15.9592 2.99942 13.4518 3.06079 11.137 3.86343C8.82221 4.66607 6.81504 6.17009 5.39463 8.16635ZM16.1349 6.36493C15.8335 6.06351 15.4246 5.89417 14.9983 5.89417C14.5721 5.89417 14.1632 6.06351 13.8618 6.36493C13.5604 6.66636 13.391 7.07519 13.391 7.50147V16.0738C13.3911 16.3512 13.4629 16.624 13.5996 16.8655C13.7363 17.107 13.9332 17.3089 14.1711 17.4518L19.5288 20.6664C19.7098 20.7775 19.9111 20.8516 20.1209 20.8845C20.3308 20.9174 20.5451 20.9083 20.7514 20.8579C20.9577 20.8074 21.152 20.7166 21.323 20.5906C21.4941 20.4646 21.6384 20.3059 21.7477 20.1238C21.857 19.9417 21.9292 19.7397 21.96 19.5296C21.9908 19.3194 21.9796 19.1052 21.9271 18.8994C21.8746 18.6935 21.7819 18.5002 21.6542 18.3304C21.5265 18.1607 21.3664 18.0179 21.1833 17.9104L16.6057 15.163V7.50147C16.6057 7.07519 16.4363 6.66636 16.1349 6.36493Z" fill="#0AD9CA"/>
</svg>
