<svg width="30" height="31" viewBox="0 0 30 31" fill="none" xmlns="http://www.w3.org/2000/svg">
<path d="M3 26.6667H9V13.3333H3V26.6667ZM12 26.6667H18V3.33333H12V26.6667ZM21 26.6667H27V16.6667H21V26.6667ZM0 26.6667V13.3333C0 12.4167 0.294 11.6322 0.882 10.98C1.47 10.3278 2.176 10.0011 3 10H9V3.33333C9 2.41667 9.294 1.63222 9.882 0.98C10.47 0.327778 11.176 0.00111111 12 0H18C18.825 0 19.5315 0.326667 20.1195 0.98C20.7075 1.63333 21.001 2.41778 21 3.33333V13.3333H27C27.825 13.3333 28.5315 13.66 29.1195 14.3133C29.7075 14.9667 30.001 15.7511 30 16.6667V26.6667C30 27.5833 29.7065 28.3683 29.1195 29.0217C28.5325 29.675 27.826 30.0011 27 30H3C2.175 30 1.469 29.6739 0.882 29.0217C0.295 28.3694 0.001 27.5844 0 26.6667Z" fill="#0AD9CA"/>
</svg>
