<svg width="30" height="30" viewBox="0 0 30 30" fill="none" xmlns="http://www.w3.org/2000/svg">
<path d="M25.3601 0.159733L25.9788 0.249489C26.9404 0.401753 28.0174 0.656596 28.6793 1.31855C29.3412 1.9805 29.5977 3.05917 29.7499 4.02084L29.8397 4.63791C30.0416 6.09645 30.0945 8.00857 29.7499 10.1307C29.0704 14.3187 26.841 19.3146 21.2427 23.1853C21.2182 23.4715 21.2091 23.7589 21.2155 24.046L21.2427 24.9164C21.2588 25.4966 21.2491 26.0752 21.0889 26.6313C20.7844 27.6892 19.6993 28.3864 18.6848 28.8864L18.188 29.1221L17.5469 29.4042L17.1093 29.5805C15.9762 30.0132 14.6091 30.3161 13.7148 29.4202C13.3093 29.0147 13.1218 28.4633 12.9711 27.912L12.8974 27.6363C12.641 26.6634 12.3509 25.6969 11.9887 24.7609C11.8887 24.8825 11.7828 24.9991 11.6713 25.1103C10.7978 25.9822 9.61344 26.4214 8.42904 26.7612L7.64211 26.9775L6.85678 27.1859L6.09068 27.3782L5.39831 27.5385L4.5697 27.7148L4.05203 27.8158C3.79384 27.8636 3.52791 27.8479 3.27716 27.77C3.0264 27.6921 2.79836 27.5544 2.6127 27.3687C2.42703 27.183 2.28932 26.955 2.21143 26.7042C2.13355 26.4535 2.11783 26.1875 2.16563 25.9293L2.34353 25.0462L2.55028 24.1198L2.74902 23.3023L3.10963 21.948C3.46704 20.6337 3.90137 19.2794 4.87262 18.3097L5.03128 18.1574L3.80841 17.7182L2.57913 17.2951C1.85951 17.0579 1.10303 16.8079 0.580548 16.2854C-0.37467 15.3301 0.0308168 13.8395 0.506823 12.6679L0.772873 12.0476L0.992445 11.5652C1.50051 10.4849 2.22173 9.24111 3.36927 8.91094C3.92541 8.75066 4.50239 8.74104 5.08417 8.75547L5.95445 8.78432C6.24294 8.7918 6.52982 8.78272 6.81511 8.75707C10.6841 3.15854 15.6813 0.929069 19.8692 0.249489C21.6852 -0.0497425 23.5353 -0.0799854 25.3601 0.159733ZM20.3821 3.41339C16.8593 3.98558 12.5785 5.87206 9.23841 10.8968C8.83292 11.5058 8.14856 11.796 7.45138 11.9065C7.05711 11.9707 6.65964 11.9867 6.26057 11.9867L5.06334 11.9691C4.8646 11.968 4.66533 11.9712 4.46553 11.9787C3.9783 12.6262 3.63853 13.3955 3.38369 14.1601L5.78777 15.0336L6.77664 15.407C8.5845 16.1155 10.3347 16.9729 11.6809 18.3193C13.9488 20.5872 15.1011 23.554 15.9345 26.5849C16.6654 26.3284 17.3994 26.0014 18.0213 25.535L18.0309 24.9372L18.0133 23.7415C18.0133 23.344 18.0293 22.9465 18.0934 22.549C18.2024 21.8518 18.4941 21.1674 19.1031 20.7619C24.1276 17.4217 26.014 13.1407 26.5862 9.61777C26.8747 7.83868 26.8266 6.24871 26.6647 5.07708C26.6024 4.59102 26.4989 4.11113 26.3554 3.64258C25.8868 3.49959 25.407 3.39664 24.921 3.33485C23.4122 3.13932 21.883 3.16472 20.3821 3.41339ZM7.13725 20.576C6.5763 21.254 6.31506 22.1435 6.1051 23.0251L5.93201 23.7752L5.84386 24.1374L6.95614 23.8761C7.83764 23.6678 8.72875 23.4033 9.40509 22.8423C9.70561 22.5416 9.87436 22.1338 9.87421 21.7086C9.87406 21.2834 9.70502 20.8757 9.40429 20.5752C9.10356 20.2747 8.69576 20.1059 8.2706 20.1061C7.84545 20.1062 7.43777 20.2753 7.13725 20.576ZM16.2038 9.24432C16.5014 8.94659 16.8547 8.7104 17.2436 8.54924C17.6325 8.38807 18.0493 8.30508 18.4703 8.305C18.8912 8.30493 19.3081 8.38777 19.697 8.5488C20.086 8.70983 20.4394 8.9459 20.7371 9.24352C21.0348 9.54114 21.271 9.89448 21.4321 10.2834C21.5933 10.6723 21.6763 11.0891 21.6764 11.5101C21.6764 11.9311 21.5936 12.3479 21.4326 12.7369C21.2715 13.1258 21.0355 13.4793 20.7379 13.777C20.1366 14.3783 19.3211 14.7161 18.4708 14.7161C17.6205 14.7161 16.8051 14.3783 16.2038 13.777C15.6025 13.1757 15.2648 12.3602 15.2648 11.5099C15.2648 10.6595 15.6025 9.844 16.2038 9.24272V9.24432Z" fill="#0AD9CA"/>
</svg>
