<svg width="34" height="34" viewBox="0 0 34 34" fill="none" xmlns="http://www.w3.org/2000/svg">
<path d="M16.9993 2C18.3523 2 19.5119 3.062 20.8815 4.9955C22.2406 6.9155 22.9217 7.8755 22.5016 8.6885C22.0846 9.5 20.859 9.5 18.4109 9.5H15.5876C13.1395 9.5 11.9154 9.5 11.4968 8.6885C11.0768 7.877 11.7579 6.917 13.117 4.9955C14.4866 3.062 15.6462 2 16.9993 2ZM7.74208 20H26.2549C27.3905 20 27.9575 20 28.1751 19.625C28.3926 19.253 28.1121 18.7655 27.5525 17.789L27.101 17.0045C26.2519 15.5375 25.8289 14.8055 25.1298 14.402C24.4323 14 23.5817 14 21.8776 14H12.1209C10.4168 14 9.56621 14 8.86716 14.402C8.16811 14.804 7.74508 15.5375 6.89602 17.0045L6.44598 17.789C5.88494 18.764 5.60592 19.253 5.82194 19.6265C6.03795 20 6.605 20 7.74208 20ZM11.3633 32H22.6352C27.965 32 30.6307 32 31.6508 30.3245C32.2914 29.2715 32.0198 27.9935 31.0883 26.0735C30.7282 25.3295 30.5482 24.9575 30.1822 24.7295C29.8162 24.5015 29.3751 24.5 28.4901 24.5H5.50842C4.62485 24.5 4.18382 24.5 3.81779 24.728C3.45327 24.9575 3.27325 25.328 2.91173 26.0735C1.98016 27.9935 1.70864 29.2715 2.34919 30.3245C3.36776 32 6.03345 32 11.3633 32Z" stroke="#0AD9CA" stroke-width="3" stroke-linecap="round" stroke-linejoin="round"/>
</svg>
