<svg width="24" height="24" viewBox="0 0 24 24" fill="none" xmlns="http://www.w3.org/2000/svg">
<path d="M16 12C16 13.1042 15.6094 14.0469 14.8281 14.8281C14.0469 15.6094 13.1042 16 12 16C10.8958 16 9.95312 15.6094 9.17188 14.8281C8.39062 14.0469 8 13.1042 8 12C8 10.8958 8.39062 9.95312 9.17188 9.17188C9.95312 8.39062 10.8958 8 12 8C13.1042 8 14.0469 8.39062 14.8281 9.17188C15.6094 9.95312 16 10.8958 16 12ZM12 3.5C10.4583 3.5 9.03646 3.88021 7.73438 4.64062C6.43229 5.40104 5.40104 6.43229 4.64062 7.73438C3.88021 9.03646 3.5 10.4583 3.5 12C3.5 13.5417 3.88021 14.9635 4.64062 16.2656C5.40104 17.5677 6.43229 18.599 7.73438 19.3594C9.03646 20.1198 10.4583 20.5 12 20.5C13.5417 20.5 14.9635 20.1198 16.2656 19.3594C17.5677 18.599 18.599 17.5677 19.3594 16.2656C20.1198 14.9635 20.5 13.5417 20.5 12C20.5 10.4583 20.1198 9.03646 19.3594 7.73438C18.599 6.43229 17.5677 5.40104 16.2656 4.64062C14.9635 3.88021 13.5417 3.5 12 3.5ZM24 12C24 14.1771 23.4635 16.1849 22.3906 18.0234C21.3177 19.862 19.862 21.3177 18.0234 22.3906C16.1849 23.4635 14.1771 24 12 24C9.82292 24 7.8151 23.4635 5.97656 22.3906C4.13802 21.3177 2.68229 19.862 1.60938 18.0234C0.536458 16.1849 0 14.1771 0 12C0 9.82292 0.536458 7.8151 1.60938 5.97656C2.68229 4.13802 4.13802 2.68229 5.97656 1.60938C7.8151 0.536458 9.82292 0 12 0C14.1771 0 16.1849 0.536458 18.0234 1.60938C19.862 2.68229 21.3177 4.13802 22.3906 5.97656C23.4635 7.8151 24 9.82292 24 12Z" fill="#DC7344"/>
</svg>
