<svg width="36" height="36" viewBox="0 0 36 36" fill="none" xmlns="http://www.w3.org/2000/svg">
<path d="M18 0C27.9414 0 36 8.0586 36 18C36 27.9414 27.9414 36 18 36C14.9364 36.0043 11.9227 35.2235 9.24661 33.732L8.69761 33.4116L3.24001 35.0172C2.94302 35.1047 2.62859 35.1149 2.32654 35.0469C2.02449 34.9788 1.74483 34.8347 1.51406 34.6283C1.28329 34.4219 1.10907 34.1599 1.00791 33.8673C0.906751 33.5747 0.882003 33.2611 0.936014 32.9562L0.982814 32.76L2.58841 27.3024C0.891111 24.4967 -0.00416239 21.2792 1.45491e-05 18C1.45491e-05 8.0586 8.05861 0 18 0ZM18 3.6C15.4217 3.59953 12.8906 4.2913 10.671 5.60306C8.45138 6.91483 6.62465 8.79847 5.38158 11.0573C4.13852 13.3161 3.52471 15.8672 3.60426 18.4443C3.68381 21.0213 4.45379 23.5297 5.83381 25.7076C6.19021 26.2692 6.34321 26.9604 6.22261 27.6462L6.15241 27.9396L5.35861 30.6414L8.06041 29.8476C8.83981 29.6172 9.64981 29.7576 10.2924 30.1662C12.1794 31.361 14.3185 32.1005 16.5405 32.3262C18.7625 32.552 21.0066 32.2578 23.0953 31.4668C25.184 30.6759 27.0601 29.41 28.5753 27.7691C30.0905 26.1282 31.2033 24.1574 31.8256 22.0124C32.4479 19.8674 32.5628 17.607 32.161 15.41C31.7593 13.213 30.8521 11.1395 29.511 9.35347C28.1699 7.56747 26.4318 6.1179 24.434 5.11934C22.4362 4.12079 20.2335 3.60064 18 3.6ZM12.7836 9.3312C12.9831 9.24578 13.2012 9.21332 13.4169 9.23697C13.6326 9.26062 13.8386 9.33958 14.0148 9.4662C14.922 10.1286 15.642 11.0178 16.2612 11.8854L16.8498 12.7386L17.1252 13.1436C17.2847 13.3757 17.363 13.654 17.3481 13.9353C17.3331 14.2165 17.2256 14.4849 17.0424 14.6988L16.9074 14.8356L15.2442 16.0704C15.1651 16.1291 15.1094 16.2141 15.0873 16.3101C15.0652 16.4061 15.0781 16.5068 15.1236 16.5942C15.5016 17.2782 16.1694 18.2988 16.9362 19.0656C17.7048 19.8324 18.7722 20.5452 19.503 20.9646C19.6614 21.0546 19.8522 21.0258 19.9818 20.9088L20.0502 20.8278L21.132 19.1808C21.3303 18.9159 21.6237 18.7382 21.9503 18.6851C22.277 18.6321 22.6115 18.7078 22.8834 18.8964L23.8608 19.5786C24.8328 20.2716 25.767 21.0168 26.5068 21.9618C26.6437 22.1394 26.7307 22.3503 26.7589 22.5727C26.787 22.7952 26.7553 23.0211 26.667 23.2272C25.9542 24.8904 24.1488 26.307 22.2732 26.2386L21.987 26.2206L21.6432 26.1882L21.4488 26.163L21.0204 26.091C19.3572 25.7778 16.6914 24.8346 13.9284 22.0734C11.1672 19.3104 10.224 16.6446 9.91081 14.9814L9.83881 14.553L9.79381 14.1786L9.77041 13.8636L9.76321 13.7286C9.69481 11.8494 11.1186 10.044 12.7836 9.3312Z" fill="#1C1B24"/>
</svg>
